HIERARCHY
ROOT Hips
{
  OFFSET 363.916 89.4436 202.859
  CHANNELS 6 Xposition Yposition Zposition Zrotation Xrotation Yrotation
  JOINT RightUpLeg
  {
    OFFSET -9.22681 -1.41939 0.059526
    CHANNELS 3 Zrotation Xrotation Yrotation
    JOINT RightLeg
    {
      OFFSET 0.076897 -41.8891 0.179098
      CHANNELS 3 Zrotation Xrotation Yrotation
      JOINT RightFoot
      {
        OFFSET -0.0130714 -43.0092 0.527065
        CHANNELS 3 Zrotation Xrotation Yrotation
        End Site
        {
          OFFSET 0 -7.69 17.5
        }
      }
    }
  }
  JOINT LeftUpLeg
  {
    OFFSET 9.19333 -1.7604 -0.077889
    CHANNELS 3 Zrotation Xrotation Yrotation
    JOINT LeftLeg
    {
      OFFSET -0.0291634 -41.859 -0.15197
      CHANNELS 3 Zrotation Xrotation Yrotation
      JOINT LeftFoot
      {
        OFFSET 0.141288 -40.5593 0.458407
        CHANNELS 3 Zrotation Xrotation Yrotation
        End Site
        {
          OFFSET 0 -7.69 17.5
        }
      }
    }
  }
  JOINT Spine
  {
    OFFSET 0.215607 14.2961 0.04713
    CHANNELS 3 Zrotation Xrotation Yrotation
    JOINT Spine1
    {
      OFFSET 0.127345 9.70675 0.00151561
      CHANNELS 3 Zrotation Xrotation Yrotation
      JOINT Spine2
      {
        OFFSET 0.0493166 10.1169 -0.00299987
        CHANNELS 3 Zrotation Xrotation Yrotation
        JOINT Spine3
        {
          OFFSET 0.0599611 9.70888 0.0197622
          CHANNELS 3 Zrotation Xrotation Yrotation
          JOINT Neck
          {
            OFFSET 0.305156 10.372 0.0704915
            CHANNELS 3 Zrotation Xrotation Yrotation
            JOINT Head
            {
              OFFSET 0.288394 9.47974 0.0406202
              CHANNELS 3 Zrotation Xrotation Yrotation
              End Site
              {
                OFFSET 0 15.95 0
              }
            }
          }
          JOINT RightShoulder
          {
            OFFSET -3.14873 6.92098 0.0285763
            CHANNELS 3 Zrotation Xrotation Yrotation
            JOINT RightArm
            {
              OFFSET -12.7049 -0.00288304 0.0369593
              CHANNELS 3 Zrotation Xrotation Yrotation
              JOINT RightForeArm
              {
                OFFSET -26.4954 -0.160471 0.0134548
                CHANNELS 3 Zrotation Xrotation Yrotation
                JOINT RightHand
                {
                  OFFSET -26.0026 -0.0211725 -0.0218708
                  CHANNELS 3 Zrotation Xrotation Yrotation
                  JOINT RightHandThumb1
                  {
                    OFFSET -2.48905 0.190105 3.12053
                    CHANNELS 3 Zrotation Xrotation Yrotation
                    JOINT RightHandThumb2
                    {
                      OFFSET -3.68274 0 0
                      CHANNELS 3 Zrotation Xrotation Yrotation
                      JOINT RightHandThumb3
                      {
                        OFFSET -2.55832 0 0
                        CHANNELS 3 Zrotation Xrotation Yrotation
                        End Site
                        {
                          OFFSET -2.194 0 0
                        }
                      }
                    }
                  }
                  JOINT RightInHandIndex
                  {
                    OFFSET -3.22368 0.508421 1.97842
                    CHANNELS 3 Zrotation Xrotation Yrotation
                    JOINT RightHandIndex1
                    {
                      OFFSET -5.21684 -0.091368 0.999158
                      CHANNELS 3 Zrotation Xrotation Yrotation
                      JOINT RightHandIndex2
                      {
                        OFFSET -3.61937 0 0
                        CHANNELS 3 Zrotation Xrotation Yrotation
                        JOINT RightHandIndex3
                        {
                          OFFSET -2.0521 0 0
                          CHANNELS 3 Zrotation Xrotation Yrotation
                          End Site
                          {
                            OFFSET -1.805 0 0
                          }
                        }
                      }
                    }
                  }
                  JOINT RightInHandMiddle
                  {
                    OFFSET -3.38211 0.517263 0.756737
                    CHANNELS 3 Zrotation Xrotation Yrotation
                    JOINT RightHandMiddle1
                    {
                      OFFSET -5.17411 -0.084 0.313895
                      CHANNELS 3 Zrotation Xrotation Yrotation
                      JOINT RightHandMiddle2
                      {
                        OFFSET -3.94947 0 0
                        CHANNELS 3 Zrotation Xrotation Yrotation
                        JOINT RightHandMiddle3
                        {
                          OFFSET -2.47579 0 0
                          CHANNELS 3 Zrotation Xrotation Yrotation
                          End Site
                          {
                            OFFSET -1.975 0 0
                          }
                        }
                      }
                    }
                  }
                  JOINT RightInHandRing
                  {
                    OFFSET -3.36516 0.537895 -0.128947
                    CHANNELS 3 Zrotation Xrotation Yrotation
                    JOINT RightHandRing1
                    {
                      OFFSET -4.63474 -0.022105 -0.478947
                      CHANNELS 3 Zrotation Xrotation Yrotation
                      JOINT RightHandRing2
                      {
                        OFFSET -3.44238 0 0
                        CHANNELS 3 Zrotation Xrotation Yrotation
                        JOINT RightHandRing3
                        {
                          OFFSET -2.3881 0 0
                          CHANNELS 3 Zrotation Xrotation Yrotation
                          End Site
                          {
                            OFFSET -1.857 0 0
                          }
                        }
                      }
                    }
                  }
                  JOINT RightInHandPinky
                  {
                    OFFSET -3.16105 0.469368 -1.20179
                    CHANNELS 3 Zrotation Xrotation Yrotation
                    JOINT RightHandPinky1
                    {
                      OFFSET -4.14105 -0.022105 -1.09053
                      CHANNELS 3 Zrotation Xrotation Yrotation
                      JOINT RightHandPinky2
                      {
                        OFFSET -2.75653 0 0
                        CHANNELS 3 Zrotation Xrotation Yrotation
                        JOINT RightHandPinky3
                        {
                          OFFSET -1.74189 0 0
                          CHANNELS 3 Zrotation Xrotation Yrotation
                          End Site
                          {
                            OFFSET -1.645 0 0
                          }
                        }
                      }
                    }
                  }
                }
              }
            }
          }
          JOINT LeftShoulder
          {
            OFFSET 3.26342 6.92519 -0.0174379
            CHANNELS 3 Zrotation Xrotation Yrotation
            JOINT LeftArm
            {
              OFFSET 12.8742 -0.0269705 -0.0666419
              CHANNELS 3 Zrotation Xrotation Yrotation
              JOINT LeftForeArm
              {
                OFFSET 26.5114 0.000826062 -0.052783
                CHANNELS 3 Zrotation Xrotation Yrotation
                JOINT LeftHand
                {
                  OFFSET 25.9941 -0.0689373 0.00603348
                  CHANNELS 3 Zrotation Xrotation Yrotation
                  JOINT LeftHandThumb1
                  {
                    OFFSET 2.48905 0.190105 3.12053
                    CHANNELS 3 Zrotation Xrotation Yrotation
                    JOINT LeftHandThumb2
                    {
                      OFFSET 3.68274 0 0
                      CHANNELS 3 Zrotation Xrotation Yrotation
                      JOINT LeftHandThumb3
                      {
                        OFFSET 2.55832 0 0
                        CHANNELS 3 Zrotation Xrotation Yrotation
                        End Site
                        {
                          OFFSET 2.194 0 0
                        }
                      }
                    }
                  }
                  JOINT LeftInHandIndex
                  {
                    OFFSET 3.22368 0.508421 1.97842
                    CHANNELS 3 Zrotation Xrotation Yrotation
                    JOINT LeftHandIndex1
                    {
                      OFFSET 5.21684 -0.091368 0.999158
                      CHANNELS 3 Zrotation Xrotation Yrotation
                      JOINT LeftHandIndex2
                      {
                        OFFSET 3.61937 0 0
                        CHANNELS 3 Zrotation Xrotation Yrotation
                        JOINT LeftHandIndex3
                        {
                          OFFSET 2.0521 0 0
                          CHANNELS 3 Zrotation Xrotation Yrotation
                          End Site
                          {
                            OFFSET 1.805 0 0
                          }
                        }
                      }
                    }
                  }
                  JOINT LeftInHandMiddle
                  {
                    OFFSET 3.38211 0.517263 0.756737
                    CHANNELS 3 Zrotation Xrotation Yrotation
                    JOINT LeftHandMiddle1
                    {
                      OFFSET 5.17411 -0.084 0.313895
                      CHANNELS 3 Zrotation Xrotation Yrotation
                      JOINT LeftHandMiddle2
                      {
                        OFFSET 3.94947 0 0
                        CHANNELS 3 Zrotation Xrotation Yrotation
                        JOINT LeftHandMiddle3
                        {
                          OFFSET 2.47579 0 0
                          CHANNELS 3 Zrotation Xrotation Yrotation
                          End Site
                          {
                            OFFSET 1.975 0 0
                          }
                        }
                      }
                    }
                  }
                  JOINT LeftInHandRing
                  {
                    OFFSET 3.36516 0.537895 -0.128947
                    CHANNELS 3 Zrotation Xrotation Yrotation
                    JOINT LeftHandRing1
                    {
                      OFFSET 4.63474 -0.022105 -0.478947
                      CHANNELS 3 Zrotation Xrotation Yrotation
                      JOINT LeftHandRing2
                      {
                        OFFSET 3.44238 0 0
                        CHANNELS 3 Zrotation Xrotation Yrotation
                        JOINT LeftHandRing3
                        {
                          OFFSET 2.3881 0 0
                          CHANNELS 3 Zrotation Xrotation Yrotation
                          End Site
                          {
                            OFFSET 1.857 0 0
                          }
                        }
                      }
                    }
                  }
                  JOINT LeftInHandPinky
                  {
                    OFFSET 3.16105 0.469368 -1.20179
                    CHANNELS 3 Zrotation Xrotation Yrotation
                    JOINT LeftHandPinky1
                    {
                      OFFSET 4.14105 -0.022105 -1.09053
                      CHANNELS 3 Zrotation Xrotation Yrotation
                      JOINT LeftHandPinky2
                      {
                        OFFSET 2.75653 0 0
                        CHANNELS 3 Zrotation Xrotation Yrotation
                        JOINT LeftHandPinky3
                        {
                          OFFSET 1.74189 0 0
                          CHANNELS 3 Zrotation Xrotation Yrotation
                          End Site
                          {
                            OFFSET 1.645 0 0
                          }
                        }
                      }
                    }
                  }
                }
              }
            }
          }
        }
      }
    }
  }
}
MOTION
Frames: 3
Frame Time: 0.00833333
4.499702507810580414e+02 -1.731620734508613558e-03 -1.227528235072908314e-01 2.901129291225888578e-03 -1.332435348216596746e-02 -2.838953130715696563e-02 2.222051279504712595e-01 -9.173227116357673960e-02 4.416469282105087157e-01 -1.254593649488722727e-02 1.890614732423256394e-01 -1.303783980893461203e-01 8.785241753889025049e-03 -1.210215731959140423e-01 -1.107894638360235051e-01 2.927209817454986540e-01 -2.311399707992023086e-02 7.098341898440503339e-01 2.361961756453537231e-01 -5.573425543676885363e-02 -4.595050919922520904e-01 -1.401977364241448476e-01 1.171252376740939266e-01 -1.870635728534021658e-01 -2.372381603402784755e-01 4.337981005845871485e-02 3.268969341969477638e-01 -5.018919095335370312e-02 1.669649386116393852e-02 7.213920907698066765e-02 -8.213053782737143871e-02 2.343972390541052345e-02 1.143792851152744955e-01 1.339029413383379177e-02 -1.829340808225592401e-03 -1.732705801619040253e-02 1.691179764075697450e-02 7.027197712737773966e-03 -3.367193526143564403e-02 2.252364180303086383e-01 -9.699793305933696042e-02 -2.980475819564377682e-01 7.078567859060964917e-02 -9.347978124127083455e-02 -3.680523456955511752e-02 -2.027882785574157964e-01 1.348524843856513944e-01 2.052760900793931809e-01 -6.219283993449484793e-01 1.873125439174551654e-01 -7.504767878727464092e-01 -1.725840393851300544e-02 -1.804959076870562423e-02 -1.514694325326775837e-01 0.000000000000000000e+00 0.000000000000000000e+00 0.000000000000000000e+00 3.951963934769604208e-15 -1.717450357029182239e-15 0.000000000000000000e+00 5.112313595467517412e-15 -8.855141559261144271e-16 0.000000000000000000e+00 -9.723901445599059230e-16 -1.571396378007199022e-15 -1.658196116606234906e-15 0.000000000000000000e+00 0.000000000000000000e+00 0.000000000000000000e+00 0.000000000000000000e+00 -2.362612286293290842e-15 -9.926054834934232229e-15 0.000000000000000000e+00 -6.904074291465084509e-15 -3.291009635927387910e-14 -9.723901445599059230e-16 -1.571396378007199022e-15 -1.658196116606234906e-15 0.000000000000000000e+00 -4.096060043927969322e-15 -6.720705058364892114e-15 0.000000000000000000e+00 -7.377189030125131139e-15 -8.289867426219109997e-15 0.000000000000000000e+00 9.066418216918190862e-15 5.463391420065222267e-14 -9.723901445599059230e-16 -1.571396378007199022e-15 -1.658196116606234906e-15 0.000000000000000000e+00 0.000000000000000000e+00 0.000000000000000000e+00 0.000000000000000000e+00 -1.473300401731672577e-15 -8.913072387677815025e-15 0.000000000000000000e+00 -5.465957610972294547e-15 -3.739618870658008306e-14 -9.723901445599059230e-16 -1.571396378007199022e-15 -1.658196116606234906e-15 0.000000000000000000e+00 0.000000000000000000e+00 0.000000000000000000e+00 0.000000000000000000e+00 -4.032171462677267632e-15 -7.064077390241333728e-15 0.000000000000000000e+00 2.021355211838264866e-16 8.815309867756343195e-15 4.614085831577602326e-03 -3.909109554276195275e-02 9.197681617488331907e-02 7.983697079956229847e-02 -3.515593768203323366e-02 -1.772981644746142449e-01 8.850985996829691116e-02 -2.250643370221931117e-01 1.773359583322798028e-01 -1.315435813998606408e-02 -1.778286029052018602e-01 1.445347004951196002e-02 0.000000000000000000e+00 0.000000000000000000e+00 0.000000000000000000e+00 1.574759387787289027e-15 6.022527522848115362e-16 0.000000000000000000e+00 -3.660282932593005768e-16 2.816395269791299979e-15 0.000000000000000000e+00 -1.232528230618405671e-15 -4.520804318588952694e-16 -6.545309036635231377e-16 0.000000000000000000e+00 0.000000000000000000e+00 0.000000000000000000e+00 0.000000000000000000e+00 -7.313865105112856764e-16 5.763837872211557926e-15 0.000000000000000000e+00 -1.686808591339544339e-16 4.538416498117577445e-15 -1.232528230618405671e-15 -4.520804318588952694e-16 -6.545309036635231377e-16 0.000000000000000000e+00 2.599517576100865183e-16 4.341756670660988504e-15 0.000000000000000000e+00 -1.298312847106941444e-15 8.837251258382612239e-15 0.000000000000000000e+00 -1.603824046029135669e-15 6.486748740912468481e-15 -1.232528230618405671e-15 -4.520804318588952694e-16 -6.545309036635231377e-16 0.000000000000000000e+00 0.000000000000000000e+00 0.000000000000000000e+00 0.000000000000000000e+00 -1.189895200248404159e-15 8.358130260964679804e-15 0.000000000000000000e+00 -2.423105141444476233e-15 6.366460642340280909e-15 -1.232528230618405671e-15 -4.520804318588952694e-16 -6.545309036635231377e-16 0.000000000000000000e+00 0.000000000000000000e+00 0.000000000000000000e+00 0.000000000000000000e+00 -3.002218129621983813e-16 5.120080275511799658e-15 0.000000000000000000e+00 -5.031111502454899980e-15 6.546283653299303925e-15
4.499802700646827134e+02 -1.222708976219106722e-03 -8.292437852103134999e-02 -1.908110818153202146e-02 -1.007881794816246762e-01 -2.587303093335868720e-01 3.234067671437751978e-01 -4.818659923636345321e-02 6.127554104862069639e-01 5.579074540031433473e-03 1.251579669869405109e-01 -3.646860609633918726e-02 7.894253593293374879e-03 -8.966109174555882133e-02 -8.185600173608850727e-02 2.938949323152170723e-01 7.560540633808367217e-02 7.744765773265814834e-01 1.903264517844361070e-01 -4.439815002315308096e-02 -3.071721944200400123e-01 -1.094921368790076344e-01 9.363665607680450587e-02 -1.429980554249343228e-01 -2.780398390291847766e-01 4.797752187249110928e-02 3.931796908864386153e-01 -5.862037789909647911e-02 1.770748965336819622e-02 8.699723026123437619e-02 -9.583934373567150333e-02 2.369981731561506683e-02 1.380433050758007596e-01 1.397715068041375033e-02 -3.303131026976776664e-03 -1.924008149954785363e-02 1.567074239771829719e-02 1.821948059894571933e-04 -2.588683216721804695e-02 2.358832537054278145e-01 -1.051334402724619921e-01 -3.376250965220878864e-01 7.022019976210291947e-02 -7.652536246329069702e-02 -4.026606267240880749e-02 -1.747799093649833602e-01 9.851397692699777331e-02 1.527043001540523692e-01 -4.515281881549754739e-01 1.066051195775189198e-01 -5.794711599399227087e-01 -1.869113706603256486e-01 2.796670719347336131e-01 -4.615084855760828164e-01 0.000000000000000000e+00 0.000000000000000000e+00 0.000000000000000000e+00 5.327406357859557070e-15 -2.491086618917473231e-15 0.000000000000000000e+00 1.050923244200607933e-15 -1.301741457855945934e-15 0.000000000000000000e+00 -3.392842689871618838e-15 -1.313082292443614600e-15 -1.726847101091016499e-15 0.000000000000000000e+00 0.000000000000000000e+00 0.000000000000000000e+00 0.000000000000000000e+00 -3.359154568220857280e-15 -9.658805769889856511e-15 0.000000000000000000e+00 2.301296767498569098e-14 1.302877477534452169e-13 -3.392842689871618838e-15 -1.313082292443614600e-15 -1.726847101091016499e-15 0.000000000000000000e+00 -4.617392951831671259e-15 -9.553569944842593416e-15 0.000000000000000000e+00 -4.533125399565789266e-15 -9.544734596888703351e-15 0.000000000000000000e+00 -9.334204724606485448e-15 -4.891685283495990453e-14 -3.392842689871618838e-15 -1.313082292443614600e-15 -1.726847101091016499e-15 0.000000000000000000e+00 0.000000000000000000e+00 0.000000000000000000e+00 0.000000000000000000e+00 -9.567272728276819394e-16 -1.380312495292573762e-14 0.000000000000000000e+00 -9.431653665324572346e-15 -5.844889587659580288e-14 -3.392842689871618838e-15 -1.313082292443614600e-15 -1.726847101091016499e-15 0.000000000000000000e+00 0.000000000000000000e+00 0.000000000000000000e+00 0.000000000000000000e+00 -4.971938182668503075e-15 -1.202043689441689759e-14 0.000000000000000000e+00 -1.825621752356208754e-15 -1.389877802797178513e-14 5.449728365095226658e-03 -3.806622014270789195e-02 7.226473629007375277e-02 6.675148175418924024e-02 -2.187879326877971084e-02 -1.465248169947726276e-01 3.054932704575995944e-02 -1.118554052444415414e-01 1.115571998011120197e-01 -4.218118203715735121e-02 -7.480779996506928819e-01 -5.506509496063419912e-02 0.000000000000000000e+00 0.000000000000000000e+00 0.000000000000000000e+00 -7.020658604378251419e-16 6.500430050858709206e-16 0.000000000000000000e+00 -6.303479326825896020e-16 2.417143561582552220e-15 0.000000000000000000e+00 -1.330003125037019612e-15 -3.124113721034541987e-17 5.600847477750751613e-16 0.000000000000000000e+00 0.000000000000000000e+00 0.000000000000000000e+00 0.000000000000000000e+00 1.414346218133680416e-15 -3.433872085182138066e-15 0.000000000000000000e+00 2.220940732114549960e-16 -4.366963819307449120e-15 -1.330003125037019612e-15 -3.124113721034541987e-17 5.600847477750751613e-16 0.000000000000000000e+00 2.236843242109432387e-16 2.316049630790074374e-16 0.000000000000000000e+00 3.265716813538099462e-16 -9.125020992740540588e-16 0.000000000000000000e+00 2.100857957382991079e-16 -4.640982276132507169e-15 -1.330003125037019612e-15 -3.124113721034541987e-17 5.600847477750751613e-16 0.000000000000000000e+00 0.000000000000000000e+00 0.000000000000000000e+00 0.000000000000000000e+00 7.568658250685128384e-16 -8.658305489068815666e-16 0.000000000000000000e+00 -1.560436721631169226e-16 -4.261030766846789248e-15 -1.330003125037019612e-15 -3.124113721034541987e-17 5.600847477750751613e-16 0.000000000000000000e+00 0.000000000000000000e+00 0.000000000000000000e+00 0.000000000000000000e+00 2.934190610108110968e-15 -2.322682591909593260e-15 0.000000000000000000e+00 3.954772110105364436e-17 -7.221437393657812070e-15
4.499945460419578467e+02 -5.944642358563181515e-04 -2.201999384673076349e-02 -3.443467899876195837e-02 -1.437370269829851277e-01 -3.780012472631958942e-01 3.970555968803997637e-01 -2.123932765900329173e-02 7.318682356546618584e-01 9.878415402831005297e-05 5.982015782505997054e-02 -4.002973305631604001e-02 4.908834448322764270e-03 -3.691674950426609286e-02 -3.497390525206183626e-02 2.009475302464527324e-01 1.380822139432172913e-01 5.792585860424027677e-01 9.276005817144594712e-02 -2.445848279481785750e-02 -6.194916675590185495e-02 -5.734627614786962785e-02 5.003783463988659835e-02 -7.143823348361670600e-02 -2.292373858088503080e-01 3.840868446742357056e-02 3.330711123136375074e-01 -4.816688382089782949e-02 1.311936677596130252e-02 7.397052999437925269e-02 -7.870901072299434087e-02 1.641539433440623169e-02 1.175652260139954525e-01 1.239682286253712684e-02 -4.584758320394210704e-03 -1.840025449334097701e-02 1.242435034080991048e-02 -5.068468517533578944e-03 -1.824740016506997548e-02 2.097589726921199882e-01 -1.028642984431029639e-01 -3.265880402163723883e-01 4.988032937842178799e-02 -4.444023536332567664e-02 -3.140160384435162350e-02 -1.191512568429426711e-01 7.041486587288876831e-02 5.077217986911204683e-02 -1.253294298399987572e-01 -1.429100050695969286e-02 -2.181017563444193619e-01 -4.613614796442312427e-01 7.158217407619219541e-01 -9.401877659636923568e-01 0.000000000000000000e+00 0.000000000000000000e+00 0.000000000000000000e+00 3.947328433523427192e-15 -2.049403388516567886e-15 0.000000000000000000e+00 -3.908097129536813481e-15 -2.674240699002504827e-16 0.000000000000000000e+00 -3.220540424257324129e-15 -1.131368546164956009e-15 -9.939340979325217972e-16 0.000000000000000000e+00 0.000000000000000000e+00 0.000000000000000000e+00 0.000000000000000000e+00 -3.119620786414386437e-15 -5.730198793180456948e-15 0.000000000000000000e+00 3.556314513614382123e-14 1.918390429016070028e-13 -3.220540424257324129e-15 -1.131368546164956009e-15 -9.939340979325217972e-16 0.000000000000000000e+00 -2.957712248550739931e-15 -8.591155403088158318e-15 0.000000000000000000e+00 7.923076286825581940e-17 -6.805268784245409246e-15 0.000000000000000000e+00 -2.028704644057419571e-14 -1.151946556650041018e-13 -3.220540424257324129e-15 -1.131368546164956009e-15 -9.939340979325217972e-16 0.000000000000000000e+00 0.000000000000000000e+00 0.000000000000000000e+00 0.000000000000000000e+00 -1.077023928535068120e-15 -1.255263186329970604e-14 0.000000000000000000e+00 -7.239773836209576007e-15 -4.192147581545652932e-14 -3.220540424257324129e-15 -1.131368546164956009e-15 -9.939340979325217972e-16 0.000000000000000000e+00 0.000000000000000000e+00 0.000000000000000000e+00 0.000000000000000000e+00 -3.590613513148506715e-15 -1.247052654107633380e-14 0.000000000000000000e+00 -8.777432854270265208e-16 -2.070836872304810285e-14 5.516314405913279144e-03 -2.685403881839503598e-02 3.609669350878336874e-02 4.607755185521363039e-02 -2.554892892617208460e-03 -8.081186815424955261e-02 -4.793896217907673424e-02 5.271864907576472720e-02 8.333789590463798816e-03 -4.202607210770124835e-02 -8.848995328673445737e-01 -8.450672011028793895e-02 0.000000000000000000e+00 0.000000000000000000e+00 0.000000000000000000e+00 -1.741442691345928899e-15 2.700183232256647689e-16 0.000000000000000000e+00 -2.217086950546824040e-16 1.065548405474319994e-15 0.000000000000000000e+00 -6.452503751690432427e-16 3.012659854962074088e-16 1.377284228968922505e-15 0.000000000000000000e+00 0.000000000000000000e+00 0.000000000000000000e+00 0.000000000000000000e+00 2.726347275007435324e-15 -9.681508382318494652e-15 0.000000000000000000e+00 6.548079187209427666e-16 -1.042820042658303799e-14 -6.452503751690432427e-16 3.012659854962074088e-16 1.377284228968922505e-15 0.000000000000000000e+00 2.554213658823655919e-16 -3.764816199577100545e-15 0.000000000000000000e+00 6.762872914451871488e-16 -8.410275959484714283e-15 0.000000000000000000e+00 1.994658525432475462e-15 -1.249875947130354974e-14 -6.452503751690432427e-16 3.012659854962074088e-16 1.377284228968922505e-15 0.000000000000000000e+00 0.000000000000000000e+00 0.000000000000000000e+00 0.000000000000000000e+00 1.867681791654715110e-15 -9.334407531421121684e-15 0.000000000000000000e+00 2.345879235718108275e-15 -1.235733579597024815e-14 -6.452503751690432427e-16 3.012659854962074088e-16 1.377284228968922505e-15 0.000000000000000000e+00 0.000000000000000000e+00 0.000000000000000000e+00 0.000000000000000000e+00 4.007106939491928913e-15 -7.159102868902104600e-15 0.000000000000000000e+00 4.633739714083043355e-15 -1.532296552943868030e-14
